<svg xmlns="http://www.w3.org/2000/svg" viewBox="95 95 410 410" width="410" height="410">

  <defs>
    <filter id="glow-sm" x="-60%" y="-60%" width="220%" height="220%">
      <feGaussianBlur in="SourceGraphic" stdDeviation="3.5" result="b"/>
      <feMerge><feMergeNode in="b"/><feMergeNode in="SourceGraphic"/></feMerge>
    </filter>
    <filter id="glow-md" x="-70%" y="-70%" width="240%" height="240%">
      <feGaussianBlur in="SourceGraphic" stdDeviation="8" result="b"/>
      <feMerge><feMergeNode in="b"/><feMergeNode in="SourceGraphic"/></feMerge>
    </filter>
    <filter id="glow-lg" x="-100%" y="-100%" width="300%" height="300%">
      <feGaussianBlur in="SourceGraphic" stdDeviation="20" result="b"/>
      <feMerge><feMergeNode in="b"/><feMergeNode in="SourceGraphic"/></feMerge>
    </filter>
    <style>
      @keyframes beat { 0%,100%{opacity:1} 50%{opacity:.72} }
      .beat { animation: beat 2.4s ease-in-out infinite; }
    </style>
  </defs>

  <!-- Main arc: shadow -->
  <path d="M169.19,430.81 A185,185 0 1 1 430.81,430.81" fill="none" stroke="#0c0c0c" stroke-width="40" stroke-linecap="butt"/>
  <!-- Main arc: dark base track -->
  <path d="M169.19,430.81 A185,185 0 1 1 430.81,430.81" fill="none" stroke="#1e2a38" stroke-width="30" stroke-linecap="butt"/>

  <!-- Ghost gradient -->

  <path d="M169.19,430.81 A185,185 0 0 1 161.02,422.10" fill="none" stroke="rgb(57,189,248)" stroke-width="30" stroke-linecap="butt" opacity="0.2"/>
  <path d="M162.52,423.79 A185,185 0 0 1 154.82,414.66" fill="none" stroke="rgb(60,190,248)" stroke-width="30" stroke-linecap="butt" opacity="0.2"/>
  <path d="M156.23,416.42 A185,185 0 0 1 149.01,406.90" fill="none" stroke="rgb(63,191,248)" stroke-width="30" stroke-linecap="butt" opacity="0.2"/>
  <path d="M150.33,408.74 A185,185 0 0 1 143.63,398.86" fill="none" stroke="rgb(66,192,249)" stroke-width="30" stroke-linecap="butt" opacity="0.2"/>
  <path d="M144.85,400.76 A185,185 0 0 1 138.67,390.54" fill="none" stroke="rgb(68,193,249)" stroke-width="30" stroke-linecap="butt" opacity="0.2"/>
  <path d="M139.79,392.50 A185,185 0 0 1 134.15,381.97" fill="none" stroke="rgb(71,194,249)" stroke-width="30" stroke-linecap="butt" opacity="0.2"/>
  <path d="M135.16,383.99 A185,185 0 0 1 130.09,373.18" fill="none" stroke="rgb(74,195,249)" stroke-width="30" stroke-linecap="butt" opacity="0.2"/>
  <path d="M130.99,375.25 A185,185 0 0 1 126.49,364.18" fill="none" stroke="rgb(77,196,249)" stroke-width="30" stroke-linecap="butt" opacity="0.2"/>
  <path d="M127.29,366.30 A185,185 0 0 1 123.37,355.01" fill="none" stroke="rgb(79,196,249)" stroke-width="30" stroke-linecap="butt" opacity="0.2"/>
  <path d="M124.05,357.17 A185,185 0 0 1 120.73,345.69" fill="none" stroke="rgb(82,197,250)" stroke-width="30" stroke-linecap="butt" opacity="0.2"/>
  <path d="M121.30,347.88 A185,185 0 0 1 118.59,336.25" fill="none" stroke="rgb(85,198,250)" stroke-width="30" stroke-linecap="butt" opacity="0.2"/>
  <path d="M119.04,338.46 A185,185 0 0 1 116.94,326.71" fill="none" stroke="rgb(87,199,250)" stroke-width="30" stroke-linecap="butt" opacity="0.2"/>
  <path d="M117.28,328.94 A185,185 0 0 1 115.79,317.09" fill="none" stroke="rgb(90,200,250)" stroke-width="30" stroke-linecap="butt" opacity="0.2"/>
  <path d="M116.01,319.34 A185,185 0 0 1 115.15,307.42" fill="none" stroke="rgb(93,201,250)" stroke-width="30" stroke-linecap="butt" opacity="0.2"/>
  <path d="M115.25,309.68 A185,185 0 0 1 115.01,297.74" fill="none" stroke="rgb(96,202,250)" stroke-width="30" stroke-linecap="butt" opacity="0.2"/>
  <path d="M115.00,300.00 A185,185 0 0 1 115.39,288.06" fill="none" stroke="rgb(98,203,250)" stroke-width="30" stroke-linecap="butt" opacity="0.2"/>
  <path d="M115.25,290.32 A185,185 0 0 1 116.26,278.42" fill="none" stroke="rgb(101,203,251)" stroke-width="30" stroke-linecap="butt" opacity="0.2"/>
  <path d="M116.01,280.66 A185,185 0 0 1 117.64,268.83" fill="none" stroke="rgb(104,204,251)" stroke-width="30" stroke-linecap="butt" opacity="0.2"/>
  <path d="M117.28,271.06 A185,185 0 0 1 119.53,259.33" fill="none" stroke="rgb(107,205,251)" stroke-width="30" stroke-linecap="butt" opacity="0.2"/>
  <path d="M119.04,261.54 A185,185 0 0 1 121.90,249.94" fill="none" stroke="rgb(109,206,251)" stroke-width="30" stroke-linecap="butt" opacity="0.2"/>
  <path d="M121.30,252.12 A185,185 0 0 1 124.77,240.69" fill="none" stroke="rgb(112,207,251)" stroke-width="30" stroke-linecap="butt" opacity="0.2"/>
  <path d="M124.05,242.83 A185,185 0 0 1 128.11,231.60" fill="none" stroke="rgb(115,208,251)" stroke-width="30" stroke-linecap="butt" opacity="0.2"/>
  <path d="M127.29,233.70 A185,185 0 0 1 131.93,222.69" fill="none" stroke="rgb(118,209,252)" stroke-width="30" stroke-linecap="butt" opacity="0.2"/>
  <path d="M130.99,224.75 A185,185 0 0 1 136.20,214.00" fill="none" stroke="rgb(120,210,252)" stroke-width="30" stroke-linecap="butt" opacity="0.2"/>
  <path d="M135.16,216.01 A185,185 0 0 1 140.93,205.55" fill="none" stroke="rgb(123,210,252)" stroke-width="30" stroke-linecap="butt" opacity="0.2"/>
  <path d="M139.79,207.50 A185,185 0 0 1 146.09,197.35" fill="none" stroke="rgb(126,211,252)" stroke-width="30" stroke-linecap="butt" opacity="0.2"/>
  <path d="M144.85,199.24 A185,185 0 0 1 151.67,189.44" fill="none" stroke="rgb(130,213,252)" stroke-width="30" stroke-linecap="butt" opacity="0.2"/>
  <path d="M150.33,191.26 A185,185 0 0 1 157.66,181.83" fill="none" stroke="rgb(134,214,252)" stroke-width="30" stroke-linecap="butt" opacity="0.2"/>
  <path d="M156.23,183.58 A185,185 0 0 1 164.04,174.54" fill="none" stroke="rgb(137,215,252)" stroke-width="30" stroke-linecap="butt" opacity="0.2"/>
  <path d="M162.52,176.21 A185,185 0 0 1 170.79,167.60" fill="none" stroke="rgb(141,216,252)" stroke-width="30" stroke-linecap="butt" opacity="0.2"/>
  <path d="M169.19,169.19 A185,185 0 0 1 177.90,161.02" fill="none" stroke="rgb(145,217,252)" stroke-width="30" stroke-linecap="butt" opacity="0.2"/>
  <path d="M176.21,162.52 A185,185 0 0 1 185.34,154.82" fill="none" stroke="rgb(149,218,252)" stroke-width="30" stroke-linecap="butt" opacity="0.2"/>
  <path d="M183.58,156.23 A185,185 0 0 1 193.10,149.01" fill="none" stroke="rgb(152,220,252)" stroke-width="30" stroke-linecap="butt" opacity="0.2"/>
  <path d="M191.26,150.33 A185,185 0 0 1 201.14,143.63" fill="none" stroke="rgb(156,221,253)" stroke-width="30" stroke-linecap="butt" opacity="0.2"/>
  <path d="M199.24,144.85 A185,185 0 0 1 209.46,138.67" fill="none" stroke="rgb(160,222,253)" stroke-width="30" stroke-linecap="butt" opacity="0.2"/>
  <path d="M207.50,139.79 A185,185 0 0 1 218.03,134.15" fill="none" stroke="rgb(164,223,253)" stroke-width="30" stroke-linecap="butt" opacity="0.2"/>
  <path d="M216.01,135.16 A185,185 0 0 1 226.82,130.09" fill="none" stroke="rgb(168,224,253)" stroke-width="30" stroke-linecap="butt" opacity="0.2"/>
  <path d="M224.75,130.99 A185,185 0 0 1 235.82,126.49" fill="none" stroke="rgb(171,225,253)" stroke-width="30" stroke-linecap="butt" opacity="0.2"/>
  <path d="M233.70,127.29 A185,185 0 0 1 244.99,123.37" fill="none" stroke="rgb(175,227,253)" stroke-width="30" stroke-linecap="butt" opacity="0.2"/>
  <path d="M242.83,124.05 A185,185 0 0 1 254.31,120.73" fill="none" stroke="rgb(179,228,253)" stroke-width="30" stroke-linecap="butt" opacity="0.2"/>
  <path d="M252.12,121.30 A185,185 0 0 1 263.75,118.59" fill="none" stroke="rgb(183,229,253)" stroke-width="30" stroke-linecap="butt" opacity="0.2"/>
  <path d="M261.54,119.04 A185,185 0 0 1 273.29,116.94" fill="none" stroke="rgb(187,230,252)" stroke-width="30" stroke-linecap="butt" opacity="0.2"/>
  <path d="M271.06,117.28 A185,185 0 0 1 282.91,115.79" fill="none" stroke="rgb(196,230,243)" stroke-width="30" stroke-linecap="butt" opacity="0.2"/>
  <path d="M280.66,116.01 A185,185 0 0 1 292.58,115.15" fill="none" stroke="rgb(206,230,233)" stroke-width="30" stroke-linecap="butt" opacity="0.2"/>
  <path d="M290.32,115.25 A185,185 0 0 1 302.26,115.01" fill="none" stroke="rgb(215,230,224)" stroke-width="30" stroke-linecap="butt" opacity="0.2"/>
  <path d="M300.00,115.00 A185,185 0 0 1 311.94,115.39" fill="none" stroke="rgb(224,230,215)" stroke-width="30" stroke-linecap="butt" opacity="0.2"/>
  <path d="M309.68,115.25 A185,185 0 0 1 321.58,116.26" fill="none" stroke="rgb(233,230,206)" stroke-width="30" stroke-linecap="butt" opacity="0.2"/>
  <path d="M319.34,116.01 A185,185 0 0 1 331.17,117.64" fill="none" stroke="rgb(243,230,196)" stroke-width="30" stroke-linecap="butt" opacity="0.2"/>
  <path d="M328.94,117.28 A185,185 0 0 1 340.67,119.53" fill="none" stroke="rgb(252,230,187)" stroke-width="30" stroke-linecap="butt" opacity="0.2"/>
  <path d="M338.46,119.04 A185,185 0 0 1 350.06,121.90" fill="none" stroke="rgb(253,227,178)" stroke-width="30" stroke-linecap="butt" opacity="0.2"/>
  <path d="M347.88,121.30 A185,185 0 0 1 359.31,124.77" fill="none" stroke="rgb(253,224,170)" stroke-width="30" stroke-linecap="butt" opacity="0.2"/>
  <path d="M357.17,124.05 A185,185 0 0 1 368.40,128.11" fill="none" stroke="rgb(253,221,162)" stroke-width="30" stroke-linecap="butt" opacity="0.2"/>
  <path d="M366.30,127.29 A185,185 0 0 1 377.31,131.93" fill="none" stroke="rgb(253,218,153)" stroke-width="30" stroke-linecap="butt" opacity="0.2"/>
  <path d="M375.25,130.99 A185,185 0 0 1 386.00,136.20" fill="none" stroke="rgb(253,215,145)" stroke-width="30" stroke-linecap="butt" opacity="0.2"/>
  <path d="M383.99,135.16 A185,185 0 0 1 394.45,140.93" fill="none" stroke="rgb(253,212,136)" stroke-width="30" stroke-linecap="butt" opacity="0.2"/>
  <path d="M392.50,139.79 A185,185 0 0 1 402.65,146.09" fill="none" stroke="rgb(253,209,128)" stroke-width="30" stroke-linecap="butt" opacity="0.2"/>
  <path d="M400.76,144.85 A185,185 0 0 1 410.56,151.67" fill="none" stroke="rgb(253,206,120)" stroke-width="30" stroke-linecap="butt" opacity="0.2"/>
  <path d="M408.74,150.33 A185,185 0 0 1 418.17,157.66" fill="none" stroke="rgb(253,203,111)" stroke-width="30" stroke-linecap="butt" opacity="0.2"/>
  <path d="M416.42,156.23 A185,185 0 0 1 425.46,164.04" fill="none" stroke="rgb(253,200,103)" stroke-width="30" stroke-linecap="butt" opacity="0.2"/>
  <path d="M423.79,162.52 A185,185 0 0 1 432.40,170.79" fill="none" stroke="rgb(253,197,94)" stroke-width="30" stroke-linecap="butt" opacity="0.2"/>
  <path d="M430.81,169.19 A185,185 0 0 1 438.98,177.90" fill="none" stroke="rgb(253,194,86)" stroke-width="30" stroke-linecap="butt" opacity="0.2"/>
  <path d="M437.48,176.21 A185,185 0 0 1 445.18,185.34" fill="none" stroke="rgb(253,191,78)" stroke-width="30" stroke-linecap="butt" opacity="0.2"/>
  <path d="M443.77,183.58 A185,185 0 0 1 450.99,193.10" fill="none" stroke="rgb(253,188,69)" stroke-width="30" stroke-linecap="butt" opacity="0.2"/>
  <path d="M449.67,191.26 A185,185 0 0 1 456.37,201.14" fill="none" stroke="rgb(253,184,65)" stroke-width="30" stroke-linecap="butt" opacity="0.2"/>
  <path d="M455.15,199.24 A185,185 0 0 1 461.33,209.46" fill="none" stroke="rgb(253,180,64)" stroke-width="30" stroke-linecap="butt" opacity="0.2"/>
  <path d="M460.21,207.50 A185,185 0 0 1 465.85,218.03" fill="none" stroke="rgb(253,177,64)" stroke-width="30" stroke-linecap="butt" opacity="0.2"/>
  <path d="M464.84,216.01 A185,185 0 0 1 469.91,226.82" fill="none" stroke="rgb(252,173,63)" stroke-width="30" stroke-linecap="butt" opacity="0.2"/>
  <path d="M469.01,224.75 A185,185 0 0 1 473.51,235.82" fill="none" stroke="rgb(252,169,63)" stroke-width="30" stroke-linecap="butt" opacity="0.2"/>
  <path d="M472.71,233.70 A185,185 0 0 1 476.63,244.99" fill="none" stroke="rgb(252,166,62)" stroke-width="30" stroke-linecap="butt" opacity="0.2"/>
  <path d="M475.95,242.83 A185,185 0 0 1 479.27,254.31" fill="none" stroke="rgb(252,162,62)" stroke-width="30" stroke-linecap="butt" opacity="0.2"/>
  <path d="M478.70,252.12 A185,185 0 0 1 481.41,263.75" fill="none" stroke="rgb(252,158,62)" stroke-width="30" stroke-linecap="butt" opacity="0.2"/>
  <path d="M480.96,261.54 A185,185 0 0 1 483.06,273.29" fill="none" stroke="rgb(251,155,61)" stroke-width="30" stroke-linecap="butt" opacity="0.2"/>
  <path d="M482.72,271.06 A185,185 0 0 1 484.21,282.91" fill="none" stroke="rgb(251,151,61)" stroke-width="30" stroke-linecap="butt" opacity="0.2"/>
  <path d="M483.99,280.66 A185,185 0 0 1 484.85,292.58" fill="none" stroke="rgb(251,147,60)" stroke-width="30" stroke-linecap="butt" opacity="0.2"/>
  <path d="M484.75,290.32 A185,185 0 0 1 484.99,302.26" fill="none" stroke="rgb(251,143,57)" stroke-width="30" stroke-linecap="butt" opacity="0.2"/>
  <path d="M485.00,300.00 A185,185 0 0 1 484.61,311.94" fill="none" stroke="rgb(251,139,52)" stroke-width="30" stroke-linecap="butt" opacity="0.2"/>
  <path d="M484.75,309.68 A185,185 0 0 1 483.74,321.58" fill="none" stroke="rgb(250,136,47)" stroke-width="30" stroke-linecap="butt" opacity="0.2"/>
  <path d="M483.99,319.34 A185,185 0 0 1 482.36,331.17" fill="none" stroke="rgb(250,132,43)" stroke-width="30" stroke-linecap="butt" opacity="0.2"/>
  <path d="M482.72,328.94 A185,185 0 0 1 480.47,340.67" fill="none" stroke="rgb(250,128,38)" stroke-width="30" stroke-linecap="butt" opacity="0.2"/>
  <path d="M480.96,338.46 A185,185 0 0 1 478.10,350.06" fill="none" stroke="rgb(250,124,33)" stroke-width="30" stroke-linecap="butt" opacity="0.2"/>
  <path d="M478.70,347.88 A185,185 0 0 1 475.23,359.31" fill="none" stroke="rgb(249,120,29)" stroke-width="30" stroke-linecap="butt" opacity="0.2"/>
  <path d="M475.95,357.17 A185,185 0 0 1 471.89,368.40" fill="none" stroke="rgb(249,117,24)" stroke-width="30" stroke-linecap="butt" opacity="0.2"/>
  <path d="M472.71,366.30 A185,185 0 0 1 468.07,377.31" fill="none" stroke="rgb(248,112,25)" stroke-width="30" stroke-linecap="butt" opacity="0.2"/>
  <path d="M469.01,375.25 A185,185 0 0 1 463.80,386.00" fill="none" stroke="rgb(247,106,31)" stroke-width="30" stroke-linecap="butt" opacity="0.2"/>
  <path d="M464.84,383.99 A185,185 0 0 1 459.07,394.45" fill="none" stroke="rgb(246,100,37)" stroke-width="30" stroke-linecap="butt" opacity="0.2"/>
  <path d="M460.21,392.50 A185,185 0 0 1 453.91,402.65" fill="none" stroke="rgb(245,94,42)" stroke-width="30" stroke-linecap="butt" opacity="0.2"/>
  <path d="M455.15,400.76 A185,185 0 0 1 448.33,410.56" fill="none" stroke="rgb(243,88,48)" stroke-width="30" stroke-linecap="butt" opacity="0.2"/>
  <path d="M449.67,408.74 A185,185 0 0 1 442.34,418.17" fill="none" stroke="rgb(242,83,54)" stroke-width="30" stroke-linecap="butt" opacity="0.2"/>
  <path d="M443.77,416.42 A185,185 0 0 1 435.96,425.46" fill="none" stroke="rgb(241,77,59)" stroke-width="30" stroke-linecap="butt" opacity="0.2"/>
  <path d="M437.48,423.79 A185,185 0 0 1 429.21,432.40" fill="none" stroke="rgb(240,71,65)" stroke-width="30" stroke-linecap="butt" opacity="0.2"/>

  <!-- Active arc: inner-edge shimmer -->
  <path d="M178.02,421.98 A172.5,172.5 0 0 1 273.02,129.62" fill="none" stroke="rgba(255,255,255,0.18)" stroke-width="3" stroke-linecap="butt"/>

  <!-- Inner decorative rings -->
  <circle cx="300" cy="300" r="131" fill="none" stroke="#1e2a38" stroke-width="2.5"/>
  <circle cx="300" cy="300" r="127" fill="none" stroke="#192535" stroke-width="1" stroke-dasharray="5 10" opacity="0.7"/>
  <circle cx="300" cy="300" r="123" fill="none" stroke="#161e2c" stroke-width="0.5"/>

</svg>