<svg viewBox="0 0 200 200" xmlns="http://www.w3.org/2000/svg" role="img" aria-label="Embedded React">
  <defs>
    <radialGradient id="bg" cx="50%" cy="50%" r="50%">
      <stop offset="0%" stop-color="#0d2035"/>
      <stop offset="100%" stop-color="#040b16"/>
    </radialGradient>
  </defs>
  <circle cx="100" cy="100" r="100" fill="url(#bg)"/>
  <g fill="#38BDF8" transform="translate(100,100)">
    <rect x="72" y="-11" width="20" height="22" rx="5" transform="rotate(22.5)"/>
    <rect x="72" y="-11" width="20" height="22" rx="5" transform="rotate(67.5)"/>
    <rect x="72" y="-11" width="20" height="22" rx="5" transform="rotate(112.5)"/>
    <rect x="72" y="-11" width="20" height="22" rx="5" transform="rotate(157.5)"/>
    <rect x="72" y="-11" width="20" height="22" rx="5" transform="rotate(202.5)"/>
    <rect x="72" y="-11" width="20" height="22" rx="5" transform="rotate(247.5)"/>
    <rect x="72" y="-11" width="20" height="22" rx="5" transform="rotate(292.5)"/>
    <rect x="72" y="-11" width="20" height="22" rx="5" transform="rotate(337.5)"/>
  </g>
  <circle cx="100" cy="100" r="62" fill="#081a2c" stroke="#38BDF8" stroke-width="6" stroke-opacity="0.7"/>
  <g transform="translate(100,100)" stroke="#38BDF8" stroke-width="8" fill="none">
    <ellipse rx="46" ry="17"/>
    <ellipse rx="46" ry="17" transform="rotate(60)"/>
    <ellipse rx="46" ry="17" transform="rotate(120)"/>
  </g>
  <circle cx="100" cy="100" r="10" fill="#38BDF8"/>
</svg>
