<svg viewBox="0 0 200 200" xmlns="http://www.w3.org/2000/svg" role="img" aria-label="Embedded React">
  <defs>

    <filter id="glow" x="-50%" y="-50%" width="200%" height="200%">
      <feGaussianBlur in="SourceGraphic" stdDeviation="2.2" result="blur"/>
      <feMerge>
        <feMergeNode in="blur"/>
        <feMergeNode in="SourceGraphic"/>
      </feMerge>
    </filter>

    <filter id="nucleus" x="-300%" y="-300%" width="700%" height="700%">
      <feGaussianBlur in="SourceGraphic" stdDeviation="5.5" result="blur"/>
      <feMerge>
        <feMergeNode in="blur"/>
        <feMergeNode in="SourceGraphic"/>
      </feMerge>
    </filter>

    <radialGradient id="bg" cx="50%" cy="50%" r="50%">
      <stop offset="0%"   stop-color="#0d2035"/>
      <stop offset="100%" stop-color="#040b16"/>
    </radialGradient>

    <radialGradient id="chip" cx="100" cy="100" r="68" gradientUnits="userSpaceOnUse">
      <stop offset="0%"   stop-color="#112030"/>
      <stop offset="55%"  stop-color="#091828"/>
      <stop offset="100%" stop-color="#060f1e"/>
    </radialGradient>

  </defs>

  <!-- ── Background disc ── -->
  <circle cx="100" cy="100" r="98" fill="url(#bg)"/>
  <circle cx="100" cy="100" r="97.5" fill="none" stroke="#38BDF8" stroke-width="0.6" stroke-opacity="0.12"/>

  <!-- ══════════════════════════
       16 QFN PADS · 22.5° pitch
       ══════════════════════════ -->
  <g fill="#38BDF8" fill-opacity="0.9" filter="url(#glow)">
    <g transform="translate(100,100) rotate(0)">    <rect x="74" y="-4" width="10" height="8" rx="1.5"/></g>
    <g transform="translate(100,100) rotate(22.5)"> <rect x="74" y="-4" width="10" height="8" rx="1.5"/></g>
    <g transform="translate(100,100) rotate(45)">   <rect x="74" y="-4" width="10" height="8" rx="1.5"/></g>
    <g transform="translate(100,100) rotate(67.5)"> <rect x="74" y="-4" width="10" height="8" rx="1.5"/></g>
    <g transform="translate(100,100) rotate(90)">   <rect x="74" y="-4" width="10" height="8" rx="1.5"/></g>
    <g transform="translate(100,100) rotate(112.5)"><rect x="74" y="-4" width="10" height="8" rx="1.5"/></g>
    <g transform="translate(100,100) rotate(135)">  <rect x="74" y="-4" width="10" height="8" rx="1.5"/></g>
    <g transform="translate(100,100) rotate(157.5)"><rect x="74" y="-4" width="10" height="8" rx="1.5"/></g>
    <g transform="translate(100,100) rotate(180)">  <rect x="74" y="-4" width="10" height="8" rx="1.5"/></g>
    <g transform="translate(100,100) rotate(202.5)"><rect x="74" y="-4" width="10" height="8" rx="1.5"/></g>
    <g transform="translate(100,100) rotate(225)">  <rect x="74" y="-4" width="10" height="8" rx="1.5"/></g>
    <g transform="translate(100,100) rotate(247.5)"><rect x="74" y="-4" width="10" height="8" rx="1.5"/></g>
    <g transform="translate(100,100) rotate(270)">  <rect x="74" y="-4" width="10" height="8" rx="1.5"/></g>
    <g transform="translate(100,100) rotate(292.5)"><rect x="74" y="-4" width="10" height="8" rx="1.5"/></g>
    <g transform="translate(100,100) rotate(315)">  <rect x="74" y="-4" width="10" height="8" rx="1.5"/></g>
    <g transform="translate(100,100) rotate(337.5)"><rect x="74" y="-4" width="10" height="8" rx="1.5"/></g>
  </g>

  <!-- ── Chip body ── -->
  <circle cx="100" cy="100" r="68"
          fill="url(#chip)"
          stroke="#38BDF8" stroke-width="1.4" stroke-opacity="0.5"
          filter="url(#glow)"/>



  <!-- ═══════════════════════════════════════════════════
       PCB TRACES — all bends are 45°, no 90° corners
       Width hierarchy: 1.5 power · 1.3 data · 1.0 signal
       ═══════════════════════════════════════════════════ -->

  <!-- Signal traces (1.0) -->
  <g stroke="#38BDF8" stroke-width="1.0" stroke-linecap="round"
     stroke-linejoin="round" fill="none"
     stroke-opacity="0.72" filter="url(#glow)">

    <!-- Top-left: 45° NW leg → straight up -->
    <polyline points="86,74 78,66 78,58"/>
    <!-- Top-right: 45° NE leg → straight up -->
    <polyline points="114,74 122,66 122,58"/>

    <!-- Corner top-left: pure 45° diagonal -->
    <line x1="79"  y1="79"  x2="62"  y2="62"/>
    <!-- Corner top-right: pure 45° diagonal -->
    <line x1="121" y1="79"  x2="138" y2="62"/>

    <!-- Corner bottom-left: pure 45° diagonal -->
    <line x1="79"  y1="121" x2="62"  y2="138"/>
    <!-- Corner bottom-right: pure 45° diagonal -->
    <line x1="121" y1="121" x2="138" y2="138"/>

    <!-- Bottom-left: straight down → 45° SW leg -->
    <polyline points="86,126 78,134 78,142"/>
    <!-- Bottom-right: straight down → 45° SE leg -->
    <polyline points="114,126 122,134 122,142"/>

  </g>

  <!-- Data traces (1.3) -->
  <g stroke="#38BDF8" stroke-width="1.3" stroke-linecap="round"
     stroke-linejoin="round" fill="none"
     stroke-opacity="0.76" filter="url(#glow)">

    <!-- Top-center: straight up -->
    <line x1="100" y1="70"  x2="100" y2="58"/>
    <!-- Bottom-center: straight down -->
    <line x1="100" y1="130" x2="100" y2="142"/>

  </g>


  <!-- ═════════════════════════════
       VIA PADS — annular ring + dot
       ═════════════════════════════ -->
  <g filter="url(#glow)">
    <g fill="none" stroke="#38BDF8" stroke-width="1.15" stroke-opacity="0.68">
      <circle cx="78"  cy="58"  r="3.5"/>
      <circle cx="100" cy="58"  r="3.5"/>
      <circle cx="122" cy="58"  r="3.5"/>
      <circle cx="62"  cy="62"  r="3.5"/>
      <circle cx="138" cy="62"  r="3.5"/>

      <circle cx="62"  cy="138" r="3.5"/>
      <circle cx="138" cy="138" r="3.5"/>
      <circle cx="78"  cy="142" r="3.5"/>
      <circle cx="100" cy="142" r="3.5"/>
      <circle cx="122" cy="142" r="3.5"/>
    </g>
    <g fill="#38BDF8" fill-opacity="0.88">
      <circle cx="78"  cy="58"  r="1.4"/>
      <circle cx="100" cy="58"  r="1.4"/>
      <circle cx="122" cy="58"  r="1.4"/>
      <circle cx="62"  cy="62"  r="1.4"/>
      <circle cx="138" cy="62"  r="1.4"/>

      <circle cx="62"  cy="138" r="1.4"/>
      <circle cx="138" cy="138" r="1.4"/>
      <circle cx="78"  cy="142" r="1.4"/>
      <circle cx="100" cy="142" r="1.4"/>
      <circle cx="122" cy="142" r="1.4"/>
    </g>
  </g>

  <!-- ── Mask: covers trace end-caps so they disappear behind the hub ring ── -->
  <circle cx="100" cy="100" r="30" fill="url(#chip)"/>

  <!-- ── Hub ring ── -->
  <circle cx="100" cy="100" r="30"
          fill="none" stroke="#38BDF8"
          stroke-width="0.9" stroke-opacity="0.72"
          filter="url(#glow)"/>

  <!-- ════════════════════════════════════════
       REACT ATOM
       Three orbital ellipses at 0°, 60°, 120°
       ════════════════════════════════════════ -->
  <g transform="translate(100,100)"
     stroke="#38BDF8" stroke-width="1.6"
     fill="none" stroke-opacity="0.9"
     filter="url(#glow)">
    <ellipse rx="24" ry="8"/>
    <ellipse rx="24" ry="8" transform="rotate(60)"/>
    <ellipse rx="24" ry="8" transform="rotate(120)"/>
  </g>

  <!-- ── Nucleus ── -->
  <circle cx="100" cy="100" r="4.5" fill="#38BDF8" filter="url(#nucleus)"/>
  <circle cx="98.2" cy="98.2" r="1.8" fill="white" fill-opacity="0.42"/>

</svg>
